<svg xmlns="http://www.w3.org/2000/svg" width="24" height="24" version="1.1" viewBox="0 0 6.35 6.35"><g fill="#fff"><rect width="4.763" height="4.763" x=".794" y=".794" fill-opacity=".25"/><path fill-opacity=".75" d="m0.79375 0v0.79375h-0.79375v0.26458h0.79375v1.9844h-0.79375v0.26458h0.79375v1.9844h-0.79375v0.26458h0.79375v0.79375h0.26458v-0.79375h1.9844v0.79375h0.26458v-0.79375h1.9844v0.79375h0.26458v-0.79375h0.79375v-0.26458h-0.79375v-1.9844h0.79375v-0.26458h-0.79375v-1.9844h0.79375v-0.26458h-0.79375v-0.79375h-0.26458v0.79375h-1.9844v-0.79375h-0.26458v0.79375h-1.9844v-0.79375h-0.26458zm0.26458 1.0583h1.9844v1.9844h-1.9844v-1.9844zm2.249 0h1.9844v1.9844h-1.9844v-1.9844zm-2.249 2.249h1.9844v1.9844h-1.9844v-1.9844zm2.249 0h1.9844v1.9844h-1.9844v-1.9844z"/></g></svg>