<svg xmlns="http://www.w3.org/2000/svg" width="28" height="28" version="1.1" viewBox="0 0 7.408 7.408"><g transform="translate(.079375 .13229)"><g><path fill="none" stroke="#000" stroke-width=".265" d="m3.175 1.0583v2.1167" transform="translate(.5291 .52917)"/><g transform="translate(.5291 .52917)"><circle cx="3.175" cy=".794" r=".794"/></g></g><g transform="translate(.5291 .52917)"><path fill="none" stroke="#000" stroke-width=".265" d="m3.175 3.175v2.1167"/><circle cx="3.175" cy="5.556" r=".794"/></g><g><path fill="none" stroke="#000" stroke-width=".265" d="m3.175 1.0583v2.1167" transform="rotate(65 3.0217 3.8449)"/><g transform="rotate(65 3.0217 3.8449)"><circle cx="3.175" cy=".794" r=".794"/></g></g><g transform="translate(.5291 .52917)"><path fill="none" stroke="#000" stroke-width=".265" d="m3.143 3.1955-1.9184 0.89454"/><circle cx="4.224" cy=".883" r=".794" transform="rotate(65)"/></g><g transform="rotate(-65 3.8304 3.0199)"><path fill="none" stroke="#000" stroke-width=".265" d="m3.175 3.175v2.1167"/><circle cx="3.175" cy="5.556" r=".794"/></g><g><path fill="none" stroke="#000" stroke-width=".265" d="m3.175 1.0583v2.1167" transform="rotate(-65 3.8352 3.0123)"/><g transform="rotate(-65 3.8352 3.0123)"><circle cx="3.175" cy=".794" r=".794"/></g></g><circle cx="3.704" cy="3.704" r=".397" stroke-width="1"/></g><g transform="translate(.5291 .52917)"><path fill="none" stroke="#0f0" stroke-width=".265" d="m3.175 1.0583v2.1167"/><circle cx="3.175" cy=".794" r=".794" fill="#0f0"/><rect width="1.058" height=".265" x="2.646" y=".661"/><rect width=".265" height="1.058" x="3.043" y=".265"/></g><g transform="translate(.5291 .52917)"><path fill="none" stroke="#0d260d" stroke-width=".265" d="m3.175 3.175v2.1167"/><circle cx="3.175" cy="5.556" r=".794" fill="#0d260d"/><rect width="1.058" height=".265" x="2.646" y="5.424"/></g><g transform="rotate(65 3.0217 3.8449)"><path fill="none" stroke="#260d0d" stroke-width=".265" d="m3.175 1.0583v2.1167"/><circle cx="3.175" cy=".794" r=".794" fill="#260d0d"/><rect width="1.058" height=".265" x=".093" y="3.081" transform="rotate(-65)"/><rect width=".265" height="1.058" x=".49" y="2.684" transform="rotate(-65)"/></g><g transform="translate(.5291 .52917)"><path fill="none" stroke="#260d0d" stroke-width=".265" d="m3.143 3.1955-1.9184 0.89454"/><circle cx="4.224" cy=".883" r=".794" fill="#260d0d" transform="rotate(65)"/><rect width="1.058" height=".265" x=".456" y="4.07"/></g><g transform="rotate(-65 3.8304 3.0199)"><path fill="none" stroke="#0d1726" stroke-width=".265" d="m3.175 3.175v2.1167"/><circle cx="3.175" cy="5.556" r=".794" fill="#0d1726"/><rect width="1.058" height=".265" x="5.848" y="-.662" transform="rotate(65)"/></g><g transform="rotate(-65 3.8352 3.0123)"><path fill="none" stroke="#0d1726" stroke-width=".265" d="m3.175 1.0583v2.1167"/><circle cx="3.175" cy=".794" r=".794" fill="#0d1726"/><rect width="1.058" height=".265" x="1.532" y="-2.674" transform="rotate(65)"/><rect width=".265" height="1.058" x="1.929" y="-3.071" transform="rotate(65)"/></g><circle cx="3.704" cy="3.704" r=".397" fill="#80ff80"/></svg>